<svg viewBox="0 0 16 16" id="Message"><g fill="#232832" fill-rule="nonzero" transform="translate(1 1)"><path d="M13.66 1.667c0-.734-.593-1.334-1.327-1.334H1.667C.933.333.333.933.333 1.667v8C.333 10.4.933 11 1.667 11H11l2.667 2.667-.007-12zm-3.327 6.666H3.667A.669.669 0 013 7.667C3 7.3 3.3 7 3.667 7h6.666c.367 0 .667.3.667.667 0 .366-.3.666-.667.666zm0-2H3.667A.669.669 0 013 5.667C3 5.3 3.3 5 3.667 5h6.666c.367 0 .667.3.667.667 0 .366-.3.666-.667.666zm0-2H3.667A.669.669 0 013 3.667C3 3.3 3.3 3 3.667 3h6.666c.367 0 .667.3.667.667 0 .366-.3.666-.667.666z" id="Message_a"></path></g></svg>
