<svg xmlns="http://www.w3.org/2000/svg" xmlns:xlink="http://www.w3.org/1999/xlink" width="42" height="42" viewBox="0 0 42 42">
    <defs>
        <path id="a" d="M11 11c3.039 0 5.5-2.461 5.5-5.5S14.039 0 11 0a5.498 5.498 0 0 0-5.5 5.5C5.5 8.539 7.961 11 11 11zm0 2.75c-3.671 0-11 1.842-11 5.5v1.375C0 21.381.619 22 1.375 22h19.25c.756 0 1.375-.619 1.375-1.375V19.25c0-3.658-7.329-5.5-11-5.5z"/>
    </defs>
    <g fill="none" fill-rule="evenodd" transform="translate(1 1)">
        <rect width="40" height="40" fill="#DFE6ED" stroke="#FFF" stroke-width="1.28" rx="20"/>
        <g transform="translate(9 9)">
            <mask id="b" fill="#fff">
                <use xlink:href="#a"/>
            </mask>
            <g fill="#7C8BA2" mask="url(#b)">
                <path d="M-9.625-5.5h33v33h-33z"/>
            </g>
        </g>
    </g>
</svg>
